<?xml version="1.0" standalone="no"?>
<!DOCTYPE svg PUBLIC "-//W3C//DTD SVG 20010904//EN"
 "http://www.w3.org/TR/2001/REC-SVG-20010904/DTD/svg10.dtd">
<svg version="1.0" xmlns="http://www.w3.org/2000/svg"
 width="3360.000000pt" height="1070.000000pt" viewBox="0 0 3360.000000 1070.000000"
 preserveAspectRatio="xMidYMid meet">
<metadata>
Created by potrace 1.16, written by Peter Selinger 2001-2019
</metadata>
<g transform="translate(0.000000,1070.000000) scale(0.100000,-0.100000)"
fill="#000000" stroke="none">
<path d="M0 9585 c0 -984 2 -1115 15 -1115 8 0 15 4 15 8 0 5 17 17 37 28 34
17 42 18 76 7 25 -8 121 -13 294 -15 257 -3 297 -9 237 -36 -31 -15 -27 -36 7
-40 18 -2 37 8 66 38 l41 40 196 0 196 0 0 -415 c0 -324 -3 -416 -12 -419 -7
-3 -25 -7 -40 -10 -57 -13 -43 -87 23 -122 l31 -16 -20 -21 c-11 -12 -22 -34
-26 -50 -5 -23 -2 -29 19 -39 23 -11 25 -15 23 -77 -1 -36 -1 -180 1 -318 1
-139 -1 -257 -4 -263 -4 -7 -12 -7 -25 0 -10 5 -28 10 -39 10 -10 0 -33 8 -49
17 -26 15 -32 15 -47 3 -15 -12 -13 -17 24 -52 23 -21 48 -38 57 -38 8 0 31
-12 50 -27 l34 -28 0 -348 c0 -370 3 -392 49 -417 13 -6 192 -10 508 -10 415
0 492 -2 509 -15 10 -8 29 -15 41 -15 15 0 28 -11 38 -30 9 -16 19 -30 24 -30
17 0 33 31 29 54 -3 17 0 27 11 31 24 9 1422 3 1449 -6 l22 -9 0 -430 0 -430
-1910 0 c-1242 0 -1911 4 -1915 10 -3 6 -13 10 -21 10 -12 0 -14 -330 -14
-2500 l0 -2500 16800 0 16800 0 0 55 c0 62 -10 68 -53 35 -25 -20 -40 -20
-2499 -20 -2125 1 -2477 3 -2498 15 -16 9 -56 14 -116 15 -87 0 -91 1 -120 31
l-29 30 -3 213 c-2 121 1 223 7 238 7 19 19 27 48 31 21 4 46 12 55 19 15 12
15 15 0 48 -20 40 -45 49 -72 25 -17 -15 -18 -15 -24 12 -9 39 -16 650 -9 752
9 127 29 141 193 142 24 1 53 5 62 10 41 22 6 62 -44 52 -20 -4 -39 3 -70 26
-23 17 -60 36 -81 42 -26 7 -41 18 -47 35 -6 14 -10 92 -10 174 0 148 0 150
25 166 32 21 31 33 -1 59 -22 18 -26 29 -26 74 0 45 4 57 27 79 27 25 27 25
23 141 -4 91 -9 126 -26 163 -12 26 -22 56 -22 67 0 33 41 68 88 75 41 6 43 5
59 -29 12 -26 26 -38 52 -45 40 -11 51 -2 51 42 0 22 -8 32 -37 48 -21 11 -53
33 -72 50 l-34 29 27 22 c22 17 26 27 21 48 -7 29 -50 78 -76 86 -12 4 -17 16
-17 43 1 50 -27 165 -41 170 -14 5 -14 74 0 105 9 19 7 31 -5 56 -9 17 -13 37
-9 44 4 6 8 50 9 97 2 47 7 180 12 295 6 116 13 362 17 548 6 268 11 339 22
349 10 8 97 9 326 4 172 -3 575 -5 897 -4 519 1 864 0 1100 -3 41 0 102 -1
135 -1 33 0 161 0 285 -1 124 0 236 1 250 3 14 1 80 -3 147 -11 99 -10 139
-11 208 -1 62 9 96 10 125 2 28 -8 50 -7 82 2 59 16 348 12 376 -6 17 -11 713
-37 1020 -39 l292 -2 0 2998 0 2997 -16800 0 -16800 0 0 -1115z m6693 1024
c12 -7 26 -18 30 -25 4 -8 14 -14 21 -14 7 0 21 -9 30 -19 10 -11 28 -22 40
-25 13 -3 43 -24 67 -46 24 -22 49 -40 56 -40 6 0 25 -11 41 -25 17 -14 35
-25 41 -25 6 0 11 -4 11 -9 0 -10 101 -81 115 -81 5 0 15 -7 24 -15 28 -27 94
-75 102 -75 12 0 11 -57 0 -65 -5 -3 -13 -20 -17 -38 -4 -20 -29 -55 -67 -93
-33 -34 -65 -73 -71 -88 -6 -14 -38 -54 -71 -88 -33 -35 -82 -89 -108 -120
-27 -32 -54 -58 -61 -58 -7 0 -33 -13 -59 -29 -44 -29 -46 -32 -49 -83 -3 -46
-7 -55 -29 -65 -15 -7 -44 -34 -65 -59 -22 -25 -49 -55 -61 -67 -13 -11 -23
-25 -23 -31 0 -6 -9 -17 -19 -23 -11 -7 -22 -25 -25 -40 -4 -16 -20 -36 -38
-48 -17 -11 -42 -27 -55 -35 -12 -8 -29 -31 -37 -51 -8 -20 -25 -43 -38 -51
-13 -9 -33 -26 -46 -38 -18 -17 -30 -20 -50 -15 -71 17 -82 17 -117 -5 -30
-19 -36 -20 -41 -6 -3 8 -16 18 -27 22 -32 9 -95 52 -149 101 -26 24 -54 43
-63 43 -19 0 -19 13 -1 48 7 15 16 44 19 65 3 20 13 44 21 53 9 8 19 27 22 42
4 15 12 36 19 48 7 11 28 59 46 105 19 46 44 99 56 118 13 19 23 40 23 47 0 8
4 14 10 14 5 0 15 19 21 43 7 23 21 53 31 66 10 13 18 34 18 46 0 12 9 30 20
40 11 10 20 26 20 35 0 10 9 28 19 42 11 13 23 38 27 54 3 16 13 34 21 41 8 6
19 26 23 45 11 44 53 143 69 162 19 23 51 88 51 105 0 18 69 91 86 91 24 0 54
52 54 91 l0 39 56 0 c30 0 65 -5 77 -11z m5007 -1773 c25 -1 55 -7 67 -14 31
-17 135 -15 159 3 24 18 103 19 126 1 14 -10 96 -13 365 -15 371 -1 380 -2
488 -33 61 -18 75 -19 121 -8 81 20 231 -2 290 -42 45 -30 54 -53 32 -87 -6
-10 -8 -27 -4 -37 6 -16 16 -9 73 49 74 75 99 83 166 47 20 -11 45 -20 54 -20
15 0 87 -33 188 -88 39 -21 197 -184 220 -227 12 -22 25 -57 29 -77 4 -21 13
-41 19 -45 35 -21 61 -99 70 -208 7 -87 12 -512 8 -687 0 -18 2 -70 5 -115 l6
-83 -44 0 c-58 0 -82 -17 -73 -53 10 -37 36 -50 64 -31 17 12 22 13 26 2 12
-37 17 -190 17 -548 0 -433 0 -538 2 -619 1 -67 -20 -88 -56 -54 -13 11 -33
24 -46 28 -19 6 -25 2 -34 -22 -18 -48 -51 -65 -136 -69 -74 -4 -102 -18 -82
-38 5 -5 32 -10 59 -10 32 -1 56 -7 68 -19 23 -20 49 -22 59 -5 9 15 22 -15
23 -53 1 -15 11 -38 22 -53 l22 -27 -27 -52 c-14 -29 -26 -57 -26 -63 0 -7
-16 -4 -40 8 -35 17 -39 23 -34 48 3 15 1 37 -5 48 -10 20 -12 20 -43 4 -18
-8 -45 -27 -60 -41 -26 -24 -28 -32 -28 -103 0 -42 -4 -79 -9 -82 -4 -3 -19 6
-31 19 -18 19 -34 25 -66 25 -45 0 -58 10 -68 53 -3 15 -11 27 -16 27 -19 0
-30 -51 -30 -144 0 -86 2 -94 25 -116 l25 -23 -30 -19 c-17 -10 -30 -22 -30
-28 0 -5 -21 -10 -46 -10 -26 0 -78 -9 -115 -20 -97 -29 -360 -42 -407 -21
-19 9 -35 25 -39 39 -10 43 -76 51 -88 11 -9 -26 -61 -26 -70 -1 -3 11 -17 24
-30 30 -34 16 -32 28 15 71 51 47 40 61 -45 61 -49 0 -66 4 -80 20 -10 11 -30
20 -45 20 -15 0 -35 9 -45 20 -19 21 -56 24 -61 5 -2 -5 17 -26 41 -45 48 -38
89 -100 100 -151 4 -17 25 -50 47 -72 l40 -41 -24 -10 c-15 -7 -334 -11 -889
-13 -852 -4 -866 -3 -883 16 -18 20 -18 20 -47 -1 -28 -21 -32 -21 -303 -12
-178 6 -279 13 -286 20 -6 6 -15 36 -19 65 -12 88 -16 90 -92 58 -55 -24 -61
-41 -24 -65 14 -9 22 -21 19 -26 -10 -16 -190 -1 -281 22 -42 11 -96 20 -121
20 -29 0 -53 7 -69 20 -14 11 -40 20 -58 20 -18 0 -43 9 -57 19 -13 11 -42 23
-64 27 -73 13 -293 198 -308 259 -4 14 -15 34 -26 45 -11 11 -20 31 -20 43 0
13 -9 32 -20 42 -11 10 -20 30 -20 45 0 15 -8 38 -19 51 -13 17 -20 47 -23
110 -3 47 -11 96 -18 108 -11 22 -10 93 6 204 4 31 2 53 -5 60 -12 12 -16 287
-3 287 4 0 18 9 31 19 l25 19 -32 36 c-25 29 -32 46 -32 80 0 24 6 56 14 72
10 22 11 45 4 99 -12 85 -13 198 -3 243 5 21 16 37 30 42 40 15 39 70 -1 70
-31 0 -44 67 -44 235 0 148 2 164 18 167 9 2 27 -2 39 -10 16 -10 27 -11 42
-2 30 16 26 26 -19 55 -23 14 -48 42 -58 64 -19 38 -19 39 -1 44 10 3 29 -3
42 -13 13 -10 36 -20 52 -22 24 -2 31 -9 35 -32 7 -39 23 -43 44 -11 19 29 14
45 -13 45 -10 0 -26 11 -35 25 -9 14 -26 25 -39 25 -12 1 -37 13 -55 29 -36
31 -35 24 -29 206 3 99 7 127 25 160 12 22 22 54 22 71 0 18 8 38 19 48 10 10
22 32 25 50 4 18 15 41 26 51 11 10 20 25 20 34 0 9 18 34 40 56 21 22 39 45
40 51 0 18 63 69 115 94 28 13 69 39 93 58 26 22 60 38 89 43 26 5 54 15 62
23 9 8 39 25 66 39 45 23 65 26 210 32 224 8 302 8 380 0 l67 -8 20 -43 19
-44 29 15 c19 10 33 27 38 48 8 29 12 32 41 29 24 -3 38 3 56 22 l24 26 233 0
c128 0 250 -3 271 -6 l37 -7 -25 -23 c-30 -28 -32 -47 -5 -74 23 -23 41 -25
87 -8 31 11 33 15 33 59 0 39 4 49 20 54 26 8 87 -4 101 -21 15 -18 38 -18 45
1 3 8 23 19 44 25 21 6 44 17 51 26 11 13 24 15 69 9 30 -4 75 -8 100 -9z
m-5505 -157 c22 0 63 1 90 2 28 0 136 1 240 0 216 -2 190 -2 435 -6 102 -2
209 1 238 7 37 7 103 6 210 -1 87 -6 290 -15 452 -20 162 -5 306 -13 319 -18
13 -5 49 -6 80 -2 86 11 221 -2 235 -23 12 -19 -6 -81 -32 -110 -10 -13 -13
-31 -9 -64 4 -41 1 -53 -24 -87 -38 -53 -40 -108 -4 -134 74 -52 74 -50 59
-146 -5 -36 -11 -47 -23 -45 -9 2 -18 17 -21 33 -7 41 -48 56 -79 29 -47 -42
-57 -52 -86 -86 -17 -19 -37 -38 -45 -41 -12 -5 -11 -9 5 -22 13 -11 34 -15
62 -13 46 3 70 -18 30 -26 -110 -23 -128 -29 -123 -42 3 -8 9 -20 12 -28 4
-11 -5 -17 -31 -22 -49 -9 -197 4 -206 18 -10 15 -83 27 -174 28 -62 0 -89 -5
-118 -20 -33 -18 -43 -19 -72 -9 -25 10 -37 10 -48 1 -9 -8 -112 -11 -354 -12
-285 0 -347 3 -378 16 -33 13 -39 13 -60 0 -19 -13 -25 -13 -34 -2 -7 8 -23
17 -36 20 -14 4 -31 19 -39 34 -31 60 -40 59 -104 -7 -46 -49 -64 -61 -89 -61
-17 0 -36 7 -43 15 -14 17 -31 18 -465 19 -248 1 -304 -2 -325 -14 -17 -10
-53 -15 -115 -15 -68 0 -98 -5 -123 -18 -31 -17 -32 -20 -18 -35 12 -14 15
-57 18 -236 l3 -218 27 -23 c25 -22 36 -23 265 -29 131 -4 263 -11 293 -16 69
-11 391 -21 615 -19 227 2 437 -1 455 -7 8 -2 20 -14 25 -26 13 -30 33 -29 48
2 l13 25 577 3 578 2 12 -28 c17 -41 7 -697 -11 -729 -11 -20 -21 -23 -76 -23
-35 0 -87 -4 -116 -10 -34 -6 -66 -6 -93 0 -25 6 -354 12 -822 15 -429 2 -836
5 -905 6 -69 1 -150 -2 -181 -6 -37 -5 -63 -3 -77 4 -42 22 -176 26 -248 6
-50 -13 -82 -16 -132 -10 -203 22 -223 22 -235 0 -18 -32 -16 -597 2 -618 12
-15 43 -17 268 -17 l254 0 65 -31 c35 -17 67 -35 70 -40 3 -5 18 -16 33 -24
36 -18 97 -4 106 25 4 11 10 20 14 20 4 0 13 11 19 25 l12 25 1087 -1 c599 -1
1097 -5 1109 -9 34 -13 48 -108 52 -350 2 -178 0 -226 -14 -281 -12 -48 -14
-73 -7 -95 6 -18 6 -42 0 -66 l-9 -38 -1985 0 c-2149 0 -2162 0 -2183 49 -6
17 -9 94 -8 206 l3 180 40 5 c44 6 65 16 65 31 0 13 -46 51 -77 64 l-26 11 -4
302 c-2 195 0 317 7 342 12 44 1 41 143 45 61 2 83 14 74 39 -5 12 -21 16 -61
16 -45 0 -57 4 -66 20 -7 13 -21 20 -39 20 -16 0 -34 7 -41 15 -16 19 -25 137
-13 160 7 11 7 33 1 58 -12 55 14 107 54 107 38 0 80 18 75 33 -2 7 -25 12
-61 13 -32 1 -62 6 -67 11 -15 15 1 62 27 80 29 19 32 58 5 87 -24 27 -38 223
-17 251 17 23 65 15 110 -20 58 -44 66 6 9 60 -33 31 -38 42 -38 80 -1 34 -7
51 -28 73 -19 19 -25 34 -20 50 3 14 -1 29 -10 40 -24 26 -36 98 -32 182 2 41
4 294 4 561 1 402 3 488 15 505 14 18 37 19 733 25 395 3 801 4 903 2 102 -2
203 -4 225 -4z m875 -3815 c138 -2 616 -5 700 -3 61 1 176 -15 190 -26 8 -7
43 -15 78 -18 34 -3 69 -10 76 -16 20 -17 7 -71 -20 -81 -54 -21 -83 -87 -52
-118 19 -19 73 -14 93 8 28 31 35 24 35 -31 0 -28 -3 -49 -7 -47 -5 2 -20 10
-35 17 -24 12 -31 12 -54 -3 -21 -14 -25 -23 -20 -44 4 -15 9 -45 12 -67 4
-27 15 -48 36 -67 l30 -26 -23 -13 c-35 -18 -39 -27 -39 -95 0 -49 5 -69 25
-97 29 -44 44 -97 44 -152 -1 -22 -3 -173 -5 -337 -4 -260 -3 -301 12 -340 18
-45 20 -87 9 -151 -5 -26 -3 -47 6 -64 14 -26 15 -60 11 -428 0 -71 3 -256 9
-410 10 -301 10 -303 9 -384 0 -36 6 -67 20 -93 11 -22 23 -67 27 -100 4 -42
13 -69 30 -88 12 -15 23 -32 23 -37 0 -12 120 -127 149 -143 12 -6 31 -20 40
-29 10 -10 42 -21 72 -25 34 -5 63 -15 77 -29 21 -20 37 -23 157 -27 103 -4
137 -9 151 -21 23 -20 108 -49 143 -49 14 0 35 -7 45 -15 25 -19 60 -19 76 0
10 12 15 12 33 1 12 -8 39 -16 60 -19 33 -5 40 -2 59 24 l22 30 136 -6 c177
-6 251 -15 275 -31 25 -18 59 -18 74 0 13 15 110 22 421 31 384 10 443 14 519
35 41 11 103 20 137 20 52 0 67 4 92 25 16 13 47 27 70 31 22 3 50 15 60 25
11 10 36 25 56 33 20 8 36 20 36 25 0 6 9 20 19 30 22 22 91 161 91 183 0 8
11 29 25 48 19 26 25 46 25 84 0 57 4 64 42 89 25 15 26 19 16 49 -6 18 -19
42 -29 54 -25 27 -24 37 6 72 18 21 38 32 68 37 48 8 77 21 77 36 0 16 -52 31
-108 31 -48 0 -53 2 -58 25 -4 14 -3 112 1 217 9 189 9 251 0 499 -2 75 0 139
6 155 16 43 22 192 7 209 -6 8 -14 53 -16 100 -4 75 -2 88 17 113 17 23 21 43
21 98 0 47 -4 73 -14 81 -24 20 -29 78 -11 114 33 63 34 80 9 127 -30 56 -30
59 2 127 22 46 26 64 21 110 -4 39 -13 63 -29 80 l-23 24 24 42 c19 32 25 60
28 122 6 116 8 122 45 130 34 8 68 31 68 48 0 5 23 31 52 57 57 52 59 74 9 85
-43 9 -86 -14 -85 -45 0 -14 3 -32 5 -40 2 -8 -3 -15 -11 -15 -10 0 -14 8 -12
25 2 14 -2 54 -8 89 -8 48 -8 71 1 93 11 26 15 28 68 28 37 0 70 -7 96 -20 45
-23 75 -25 121 -8 26 9 42 9 76 -2 24 -7 49 -18 56 -23 17 -13 15 -50 -5 -92
-10 -22 -13 -39 -7 -45 5 -5 108 -12 229 -15 189 -6 227 -10 267 -27 60 -26
78 -19 78 28 0 33 -7 46 -61 112 -15 18 -165 11 -208 -10 -30 -16 -36 -16 -62
-2 -17 8 -29 23 -29 34 0 16 7 20 35 20 25 0 43 7 59 25 19 21 32 25 79 25 33
0 74 -8 102 -20 61 -26 131 -26 170 0 25 16 47 20 127 20 95 0 97 0 129 -32
18 -18 36 -49 40 -68 9 -39 2 -219 -10 -266 -5 -17 -4 -56 1 -87 9 -50 8 -58
-12 -85 -21 -28 -22 -38 -18 -184 2 -129 6 -159 21 -182 17 -25 19 -54 20
-289 2 -235 0 -265 -15 -287 -22 -30 -23 -57 -2 -106 18 -42 14 -108 -10 -166
-22 -53 -28 -161 -17 -343 6 -113 15 -182 25 -207 22 -52 22 -208 -1 -251 -12
-23 -18 -74 -23 -187 -10 -211 -28 -431 -42 -510 -6 -36 -11 -86 -10 -112 1
-48 1 -48 -59 -84 -67 -42 -74 -57 -66 -146 4 -41 13 -71 31 -96 19 -29 25
-51 27 -102 2 -66 -16 -176 -31 -185 -4 -3 -13 -27 -20 -55 -9 -37 -24 -61
-60 -99 -27 -27 -52 -61 -56 -75 -6 -27 -85 -106 -105 -106 -7 0 -33 -22 -59
-49 -49 -51 -125 -103 -170 -116 -22 -7 -55 -30 -112 -80 -10 -8 -45 -21 -78
-29 -35 -8 -70 -23 -81 -35 -13 -14 -32 -21 -57 -21 -20 0 -57 -10 -82 -22
-45 -21 -65 -25 -255 -47 -55 -6 -131 -18 -170 -26 -51 -11 -170 -16 -436 -19
-241 -2 -373 -8 -387 -15 -29 -15 -83 -13 -107 5 -16 11 -48 14 -156 13 -111
-1 -142 2 -173 16 -34 16 -38 16 -55 1 -9 -9 -21 -16 -24 -16 -4 0 -31 25 -61
56 -45 45 -58 54 -73 46 -23 -13 -57 -50 -72 -80 l-12 -23 -192 5 c-106 3
-203 6 -217 7 -14 1 -44 -1 -67 -5 -37 -7 -43 -6 -64 18 -19 22 -31 26 -78 26
-37 0 -66 -6 -86 -18 -29 -18 -31 -18 -60 0 -44 26 -87 23 -114 -8 -21 -24
-27 -26 -69 -19 -26 4 -85 9 -132 11 -47 2 -118 8 -158 14 -40 5 -143 10 -227
10 -85 0 -165 4 -178 9 -14 6 -76 13 -139 17 -87 5 -118 11 -137 25 -13 11
-39 19 -58 19 -23 0 -46 9 -65 25 -22 19 -41 25 -75 25 -62 0 -173 20 -173 31
0 5 -15 16 -32 25 -18 9 -41 25 -51 35 -11 11 -32 19 -52 19 -43 0 -76 13
-108 42 -54 51 -88 78 -96 78 -4 0 -21 11 -37 25 -16 14 -37 28 -47 31 -10 3
-29 15 -42 27 -66 59 -105 101 -105 111 0 16 -64 116 -91 143 -16 16 -22 35
-24 78 -2 43 -8 62 -26 81 -23 25 -24 33 -30 232 -6 184 -9 212 -27 247 -36
68 -44 165 -37 423 3 131 5 262 4 292 -1 30 -2 121 -2 203 0 81 0 189 0 240
-1 50 -1 483 -1 961 l0 868 23 19 c21 17 41 19 180 19 172 0 181 3 181 57 0
56 -71 73 -116 28 -23 -23 -32 -25 -123 -25 -122 0 -136 8 -135 78 0 28 8 61
17 75 10 15 16 45 15 77 0 41 5 57 24 77 19 21 29 24 58 18 19 -4 109 -9 200
-11z m17604 -50 c28 4 62 7 76 6 94 -5 228 3 252 16 36 19 84 18 92 -1 3 -8
16 -20 28 -26 13 -5 34 -28 46 -50 16 -28 28 -39 39 -35 8 3 20 6 26 6 8 0 11
19 9 60 l-4 60 89 0 c61 -1 94 -5 107 -15 25 -19 56 -19 92 0 37 19 113 19
138 0 25 -19 83 -19 117 -1 16 8 32 10 41 5 50 -28 119 -26 139 4 4 5 26 2 53
-7 58 -20 77 -20 102 -1 14 10 47 14 119 15 83 0 105 -3 130 -20 28 -18 47
-20 262 -20 228 0 232 0 260 -24 19 -16 46 -25 86 -29 41 -4 66 -13 87 -30 16
-14 53 -30 81 -36 31 -7 58 -20 66 -31 8 -11 19 -20 25 -20 6 0 38 -24 71 -52
33 -29 83 -67 111 -85 75 -48 76 -48 76 -111 0 -66 0 -66 62 -115 43 -35 46
-41 45 -81 -2 -35 4 -49 31 -80 17 -20 32 -43 32 -52 0 -22 -26 -28 -60 -14
-28 12 -30 15 -30 70 0 86 -34 114 -79 66 -13 -13 -38 -27 -56 -30 -38 -7 -51
-20 -60 -58 -4 -15 -22 -39 -41 -53 -40 -30 -41 -38 -13 -66 16 -16 28 -19 57
-15 20 4 43 2 50 -2 22 -15 -13 -35 -48 -29 -27 6 -32 3 -50 -34 -28 -53 -19
-118 21 -164 41 -46 65 -50 98 -16 23 24 32 27 79 23 51 -4 52 -4 52 -36 0
-20 -8 -40 -20 -51 -17 -15 -20 -30 -19 -89 0 -102 15 -138 59 -147 39 -8 57
2 71 39 5 13 15 22 22 20 27 -9 37 -516 12 -633 -8 -38 -15 -103 -15 -143 0
-84 -28 -180 -66 -225 -13 -16 -24 -41 -24 -56 0 -16 -10 -37 -25 -51 -16 -15
-25 -34 -25 -53 0 -25 -17 -48 -100 -129 -55 -54 -103 -98 -108 -98 -4 0 -15
-9 -25 -20 -9 -11 -23 -20 -31 -20 -7 0 -31 -12 -52 -26 -21 -15 -61 -32 -89
-39 -44 -10 -102 -41 -142 -75 -8 -6 -13 -35 -13 -69 0 -52 -3 -61 -25 -75
-14 -10 -30 -28 -35 -42 -5 -13 -15 -24 -21 -24 -7 0 -37 -21 -68 -47 -31 -26
-58 -48 -59 -49 -2 -1 -8 -22 -13 -45 -6 -24 -15 -47 -22 -52 -7 -5 5 -6 28
-2 43 7 109 62 121 99 7 22 55 71 86 87 10 6 23 21 28 35 7 18 17 24 41 24 22
0 38 9 57 30 16 19 36 30 52 30 40 0 98 -19 103 -34 3 -8 25 -24 49 -35 24
-12 57 -31 73 -43 46 -34 144 -153 156 -190 6 -18 22 -55 35 -82 13 -28 24
-58 24 -69 0 -20 18 -59 32 -68 5 -3 13 -50 18 -105 6 -54 14 -126 19 -159 13
-83 13 -515 0 -600 -6 -38 -14 -113 -17 -165 -6 -78 -11 -101 -31 -127 -13
-18 -30 -34 -38 -37 -13 -5 -872 -6 -1158 -2 -77 1 -150 6 -162 10 l-23 7 0
248 c0 136 -3 310 -7 385 -6 131 -7 139 -35 173 -15 20 -28 48 -28 64 0 15
-10 39 -22 54 -137 165 -152 175 -315 220 -12 3 -139 8 -282 10 -286 4 -280 2
-332 69 -13 17 -30 26 -49 26 -32 0 -47 -14 -52 -50 -5 -39 -58 -49 -228 -42
-168 7 -257 6 -860 -1 -467 -6 -523 -9 -660 -33 -110 -19 -139 -31 -146 -60
-3 -13 -7 -154 -8 -314 l-1 -290 -36 -29 -36 -30 11 -60 c8 -45 17 -64 39 -81
26 -21 27 -25 27 -115 0 -117 -9 -142 -52 -150 -45 -7 -423 -27 -528 -26 -47
0 -150 4 -230 9 -80 6 -239 10 -355 11 -115 1 -220 4 -232 7 -16 4 -23 16 -28
44 -3 21 -15 47 -25 58 -16 17 -17 22 -5 32 8 7 17 26 20 44 3 17 7 335 8 707
2 647 3 678 21 698 10 11 22 38 26 60 6 36 4 43 -22 68 l-30 28 4 480 c3 313
8 487 15 500 7 14 7 36 -2 77 -11 55 -10 58 14 83 26 26 26 27 23 172 -2 116
1 151 13 169 8 13 11 25 6 28 -5 3 -12 39 -16 78 -4 44 -15 86 -26 105 -16 26
-17 33 -6 40 26 15 35 47 27 103 -4 30 -4 65 1 77 9 25 -5 174 -21 220 -9 25
-8 37 4 61 14 27 14 41 -4 148 -28 178 -35 354 -16 434 31 133 41 169 51 179
7 7 442 11 1336 11 1233 1 1327 2 1360 18 32 16 35 16 53 -2 15 -15 27 -17 70
-12z m-19809 -31 c27 -20 48 -22 230 -30 184 -7 203 -10 232 -31 25 -18 45
-22 101 -22 62 0 73 -3 107 -30 21 -16 45 -30 55 -30 9 0 26 -11 39 -24 12
-12 40 -28 61 -35 22 -6 40 -16 40 -21 0 -5 18 -19 40 -30 22 -11 40 -24 40
-29 0 -4 18 -16 40 -26 22 -10 47 -26 56 -36 10 -11 22 -19 28 -19 6 0 27 -18
46 -41 19 -22 50 -55 68 -74 17 -19 32 -41 32 -48 0 -8 9 -22 20 -32 11 -10
20 -25 20 -33 0 -7 13 -26 28 -41 17 -15 32 -42 36 -63 3 -20 15 -47 25 -59
10 -13 21 -40 25 -59 13 -70 29 -125 40 -139 6 -8 13 -77 16 -156 5 -132 7
-145 31 -181 41 -62 54 -114 40 -169 -9 -34 -9 -62 0 -112 7 -41 9 -89 4 -127
-5 -33 -7 -187 -6 -341 10 -938 -4 -1381 -43 -1424 -15 -16 -19 -42 -24 -133
-3 -82 -10 -123 -23 -150 -10 -20 -22 -62 -25 -93 -5 -37 -15 -66 -29 -84 -12
-14 -26 -41 -29 -58 -4 -18 -16 -39 -25 -45 -10 -7 -25 -27 -34 -44 -9 -17
-25 -34 -37 -37 -14 -4 -20 -13 -20 -35 0 -21 -8 -35 -25 -46 -14 -9 -25 -23
-25 -31 0 -8 -10 -20 -22 -26 -13 -6 -32 -19 -43 -29 -11 -10 -33 -20 -49 -24
-16 -4 -41 -19 -56 -34 -79 -78 -134 -122 -166 -131 -19 -5 -42 -18 -52 -29
-12 -14 -39 -23 -95 -30 -43 -6 -86 -17 -95 -25 -9 -8 -35 -20 -57 -27 -22 -7
-53 -21 -70 -31 -16 -11 -46 -19 -66 -19 -20 0 -60 -4 -89 -10 -42 -8 -56 -7
-73 5 -40 28 -128 9 -169 -35 -22 -24 4 -22 -419 -20 -290 1 -341 -1 -367 -14
-17 -9 -41 -16 -54 -17 -13 0 -17 -3 -10 -6 17 -7 15 -23 -3 -23 -8 0 -15 6
-15 13 0 34 -87 52 -158 33 -40 -11 -59 -12 -81 -3 -36 13 -81 -3 -82 -30 0
-14 -2 -14 -9 4 -11 27 -75 46 -128 38 -60 -10 -91 -25 -85 -41 4 -10 -4 -14
-31 -14 -25 0 -36 5 -36 14 0 8 -9 18 -21 21 -22 7 -152 -5 -131 -12 25 -9 11
-23 -23 -23 -39 0 -48 16 -12 23 19 4 19 4 -5 6 -15 0 -38 5 -52 11 -30 11
-76 -5 -76 -27 0 -8 -12 -13 -30 -13 -32 0 -41 16 -12 23 19 5 -53 10 -110 7
-20 -1 -45 3 -55 8 -25 14 -121 -8 -116 -25 4 -10 -85 -13 -424 -13 l-428 0
-17 43 c-9 23 -19 55 -22 70 -5 21 -11 27 -24 23 -9 -3 -36 -10 -59 -16 -31
-8 -49 -21 -70 -50 -15 -22 -36 -40 -45 -40 -10 0 -18 -7 -18 -15 0 -13 -21
-15 -126 -15 -104 0 -125 2 -121 14 6 14 -21 29 -75 42 -32 7 -89 -22 -81 -43
4 -11 -82 -13 -501 -13 -331 0 -506 3 -506 10 0 6 6 10 13 10 19 1 -65 30 -87
30 -11 0 -34 -5 -52 -12 -29 -10 -39 -9 -79 12 l-46 24 3 895 3 896 46 3 c49
3 84 28 74 53 -3 8 -22 23 -42 34 -57 31 -75 63 -65 110 8 39 9 40 56 46 51 5
66 19 66 60 0 53 -13 90 -36 102 -22 12 -84 116 -84 142 0 15 22 25 56 25 19
0 29 9 43 40 10 22 28 51 42 64 13 14 36 38 52 53 31 32 33 45 11 67 -21 22
-40 20 -65 -5 -17 -17 -23 -19 -30 -8 -16 25 -9 44 21 61 17 9 30 23 30 30 0
7 -20 34 -44 60 -39 43 -47 47 -75 42 -26 -5 -32 -3 -40 17 -26 63 -30 133
-21 366 8 203 10 511 7 1053 0 63 6 182 14 263 l15 148 39 32 c21 18 46 35 54
38 9 4 1064 6 2346 5 l2330 -1 30 -22z m10070 19 c11 0 439 2 952 4 919 5 932
5 942 -15 6 -11 8 -26 5 -34 -6 -18 21 -87 35 -87 12 0 51 49 51 64 0 6 14 27
31 45 l30 34 284 -5 c267 -5 285 -6 318 -27 20 -12 51 -21 75 -21 50 0 86 -13
123 -44 27 -23 31 -24 81 -12 29 7 66 20 81 31 25 16 34 17 85 5 31 -7 73 -18
93 -26 20 -7 72 -16 115 -20 50 -4 86 -12 97 -23 11 -9 50 -21 88 -27 38 -7
76 -20 86 -29 9 -10 36 -25 59 -35 23 -10 45 -23 48 -28 3 -6 20 -14 38 -17
34 -8 217 -184 253 -244 55 -92 63 -114 53 -143 -9 -24 -5 -35 29 -84 21 -31
47 -71 58 -89 12 -19 30 -43 40 -55 17 -19 21 -41 25 -164 4 -112 9 -148 23
-169 15 -24 17 -64 17 -468 0 -403 -2 -444 -17 -461 -11 -13 -19 -42 -21 -86
-4 -65 -6 -69 -61 -131 -78 -90 -97 -108 -128 -123 -24 -12 -28 -20 -31 -63
-4 -70 -3 -90 4 -176 6 -74 5 -77 -17 -84 -16 -5 -26 -2 -38 13 -21 27 -76 53
-95 46 -22 -8 -28 -37 -24 -107 l3 -62 -42 -10 c-56 -14 -122 -55 -129 -81 -9
-36 44 -113 109 -157 16 -11 17 -16 6 -42 -8 -17 -24 -40 -37 -53 -20 -19 -23
-30 -19 -57 7 -44 -20 -80 -81 -106 -24 -11 -55 -28 -69 -39 -14 -11 -40 -20
-59 -20 -20 0 -44 -9 -63 -26 -31 -26 -59 -30 -238 -38 -42 -1 -68 -8 -81 -19
-14 -13 -36 -17 -88 -16 -116 1 -397 -17 -424 -28 -19 -8 -30 -8 -44 3 -14 10
-59 13 -191 11 -188 -2 -205 2 -205 53 0 15 -7 34 -16 41 -9 8 -25 32 -35 54
-10 22 -29 52 -41 67 l-22 28 28 29 28 29 -24 16 c-87 62 -112 74 -131 64 -16
-8 -18 -18 -14 -49 5 -37 3 -39 -26 -47 -40 -10 -45 -35 -14 -64 13 -13 29
-32 34 -43 6 -10 28 -24 50 -30 30 -8 42 -19 56 -49 10 -22 28 -47 40 -57 49
-40 21 -43 -391 -40 -340 2 -395 0 -440 -14 -47 -16 -53 -16 -74 -1 -20 14
-84 16 -568 15 -300 0 -566 -4 -592 -8 -27 -4 -57 -16 -69 -27 -17 -16 -37
-19 -116 -19 -82 0 -97 -3 -109 -19 -12 -17 -12 -22 4 -39 15 -17 27 -19 109
-15 106 6 108 5 93 -74 -7 -35 -7 -71 0 -111 10 -52 9 -190 -5 -537 -2 -54
-18 -160 -41 -267 l-4 -23 -263 0 c-202 1 -271 4 -302 15 -52 19 -103 19 -139
0 -42 -22 -54 -19 -62 20 -8 43 -46 85 -77 85 -28 0 -72 -44 -88 -88 l-11 -32
-192 0 c-184 0 -192 1 -206 21 -8 12 -30 39 -47 61 -33 39 -33 41 -33 145 0
57 4 113 10 123 11 20 100 50 147 50 15 -1 39 -7 53 -15 14 -8 35 -14 48 -15
31 0 84 -41 116 -90 28 -42 50 -49 81 -26 18 13 18 15 2 30 -9 10 -17 23 -17
30 0 25 -120 152 -170 181 -89 51 -117 64 -137 65 -30 0 -38 -18 -19 -39 21
-23 20 -41 -1 -41 -35 0 -44 17 -53 101 -6 51 -10 856 -10 2083 l1 1999 38 39
39 39 714 -5 c392 -2 722 -4 733 -4z m5742 -138 c34 -37 88 -33 149 12 l49 36
100 -6 c116 -6 170 -19 181 -44 11 -27 13 -1597 2 -1664 -8 -41 -7 -71 2 -107
9 -39 9 -58 0 -86 -6 -19 -15 -35 -20 -35 -4 0 -15 -20 -23 -44 -9 -27 -35
-65 -66 -96 -28 -28 -51 -57 -51 -65 0 -7 -6 -18 -14 -24 -19 -16 -27 8 -29
82 -2 51 2 62 25 88 15 16 42 36 60 44 98 43 111 102 33 149 l-39 24 -47 -40
c-35 -29 -49 -49 -54 -76 -6 -35 -8 -36 -21 -17 -8 10 -14 40 -14 66 0 36 -6
55 -25 77 -14 17 -25 42 -25 56 0 17 -9 31 -27 43 -16 9 -35 25 -43 35 -9 10
-32 21 -51 24 -32 5 -39 3 -58 -25 -14 -20 -31 -31 -46 -31 -28 0 -71 -36 -79
-66 -10 -33 16 -58 60 -58 54 -1 64 -11 62 -57 -1 -25 5 -46 15 -56 14 -15 14
-18 -1 -41 -14 -21 -17 -48 -15 -139 l2 -113 -39 -25 c-22 -14 -41 -25 -44
-25 -11 0 -17 43 -22 153 -3 67 -10 129 -15 139 -12 22 -63 24 -81 3 -29 -34
-40 -45 -56 -54 -14 -8 -18 -31 -22 -133 l-5 -123 -35 0 c-31 0 -36 4 -46 34
-14 43 -41 63 -75 56 -35 -8 -52 14 -44 58 6 33 -11 67 -35 67 -21 0 -40 -34
-40 -70 0 -22 -9 -62 -20 -91 -11 -28 -23 -76 -26 -108 -7 -66 2 -78 84 -107
55 -19 76 -41 66 -68 -9 -24 -58 -36 -93 -23 -26 10 -33 8 -53 -10 -13 -11
-40 -23 -60 -27 -29 -5 -46 -19 -85 -66 -43 -53 -52 -60 -84 -60 -31 0 -38 5
-48 28 -7 15 -34 46 -61 67 -43 34 -50 45 -50 75 0 19 6 47 14 61 11 22 11 30
0 50 -15 28 -20 434 -5 458 6 8 3 27 -6 49 -12 30 -14 65 -9 192 4 85 7 173 6
195 -9 633 -9 1344 -1 1392 9 46 17 64 43 86 l33 27 407 -2 c224 -1 410 0 413
4 10 10 77 -22 102 -48z m174 -2641 c15 -6 31 -25 37 -42 9 -27 8 -32 -8 -41
-10 -5 -38 -10 -62 -10 -53 0 -78 -17 -93 -61 -13 -38 -45 -59 -91 -59 -46 0
-65 19 -56 55 7 25 17 33 61 47 63 20 80 33 96 71 11 26 74 69 85 57 3 -3 17
-11 31 -17z m-1006 -54 c33 -6 78 -8 100 -5 22 3 46 1 53 -3 22 -13 -14 -34
-49 -29 -25 4 -32 1 -40 -19 -18 -47 -10 -101 22 -158 17 -30 36 -55 42 -55 6
0 23 11 37 25 21 20 33 24 58 19 40 -8 47 -28 43 -127 -2 -74 11 -137 29 -137
4 0 13 -13 20 -30 13 -32 46 -48 62 -32 6 6 16 21 22 34 8 15 22 24 42 26 44
4 51 -21 16 -53 -26 -24 -26 -26 -12 -53 25 -43 103 -75 173 -70 52 4 62 8
101 47 l44 43 -18 32 c-14 23 -19 54 -21 120 -2 98 5 111 53 94 22 -8 34 -6
53 6 14 9 25 20 25 24 0 5 13 18 29 30 l30 22 60 -31 c70 -36 91 -33 91 11 0
32 18 47 45 36 13 -5 12 -9 -5 -26 -11 -11 -20 -28 -20 -38 0 -22 32 -59 57
-65 10 -3 39 -10 65 -17 44 -12 49 -16 58 -54 6 -22 14 -50 19 -61 4 -11 5
-29 0 -40 -4 -11 -8 -37 -8 -58 -1 -21 -8 -51 -16 -66 -13 -27 -13 -30 16 -57
28 -26 30 -33 25 -76 -2 -26 -12 -60 -20 -77 -11 -21 -16 -59 -16 -124 0 -79
3 -98 20 -120 15 -19 20 -40 20 -86 0 -33 5 -83 11 -110 10 -47 9 -54 -17
-100 -26 -45 -27 -53 -16 -84 16 -44 15 -78 -4 -102 -18 -24 -11 -146 13 -212
14 -38 14 -43 -3 -67 l-19 -25 -716 -1 -717 0 -6 32 c-3 18 -4 413 -1 878 5
821 9 910 36 910 5 0 1 10 -11 22 -30 32 -24 61 15 71 20 5 26 5 130 -14z"/>
<path d="M10296 8558 c-14 -22 -16 -39 -10 -103 7 -77 7 -77 42 -92 33 -14 37
-13 49 3 17 24 16 44 -3 65 -14 16 -14 18 5 24 15 4 31 -1 52 -19 39 -33 69
-33 108 0 37 31 41 72 11 99 -21 19 -21 19 -150 -15 -28 -8 -37 -7 -45 6 -5 9
-17 26 -26 37 l-16 21 -17 -26z"/>
<path d="M11180 8535 c-7 -9 -12 -30 -12 -48 1 -17 2 -48 2 -67 0 -25 7 -40
27 -56 l27 -21 -13 -85 c-13 -86 -11 -97 27 -170 2 -5 -3 -8 -11 -8 -8 0 -25
-8 -37 -18 l-23 -18 23 -40 c16 -27 21 -47 16 -60 -7 -17 -9 -17 -24 9 -9 15
-20 27 -23 27 -4 0 -22 -18 -39 -40 -27 -34 -37 -40 -68 -40 -59 0 -67 10 -53
63 11 45 7 77 -10 77 -15 0 -10 57 6 70 41 34 -8 63 -52 31 -15 -11 -47 -22
-70 -26 -36 -6 -42 -4 -48 14 -3 12 -12 21 -19 21 -16 0 -59 -58 -51 -70 3 -6
28 -10 54 -10 60 0 78 -16 52 -44 -11 -12 -22 -33 -26 -47 -5 -22 -1 -29 25
-46 l32 -20 -32 -12 c-18 -6 -41 -11 -50 -11 -10 0 -23 -7 -30 -15 -8 -10 -30
-15 -61 -15 -44 0 -51 3 -60 26 -5 15 -8 28 -7 29 2 1 13 8 26 14 12 6 22 20
22 31 0 10 5 22 10 25 6 3 10 20 10 36 0 29 -1 30 -22 15 -28 -20 -66 -11 -99
25 -14 15 -45 33 -70 40 -52 16 -61 25 -53 62 7 34 -24 51 -40 22 -6 -10 -27
-37 -47 -59 -20 -23 -42 -58 -48 -79 -12 -36 -15 -37 -46 -31 -37 7 -54 -8
-34 -32 10 -12 15 -12 33 -1 25 16 58 5 94 -30 12 -13 33 -23 45 -23 13 0 32
-9 42 -20 10 -11 26 -20 36 -20 10 0 29 -4 43 -10 l26 -9 -24 -26 c-15 -16
-40 -28 -63 -32 -21 -3 -72 -28 -116 -57 -110 -71 -127 -106 -137 -281 -5 -82
-14 -149 -26 -181 -16 -46 -16 -57 -5 -106 9 -36 11 -78 7 -119 -4 -35 -6 -80
-4 -99 3 -37 1 -570 -2 -653 -2 -48 19 -97 42 -97 11 0 78 -67 78 -79 0 -3 19
-27 43 -53 36 -42 49 -49 97 -57 30 -5 73 -16 95 -25 24 -9 74 -15 126 -16 53
0 106 -7 140 -17 50 -17 120 -18 859 -18 652 0 812 3 840 14 19 7 81 16 137
20 72 5 108 12 120 23 10 9 35 19 55 23 26 5 52 22 90 61 84 85 95 102 103
150 3 25 15 64 25 87 15 32 20 66 20 137 0 52 5 165 10 250 6 85 14 279 19
430 7 220 6 280 -4 300 -9 18 -10 31 -3 44 11 19 -11 51 -42 61 -10 3 -21 20
-24 38 -13 68 -179 209 -262 221 -23 3 -54 13 -70 21 -16 8 -54 15 -84 15 -30
0 -107 10 -170 21 -98 17 -177 21 -540 26 -234 3 -434 10 -445 15 -11 5 -36
17 -55 27 -24 13 -41 16 -57 10 -14 -5 -25 -4 -29 2 -6 11 4 24 69 92 21 22
36 45 34 51 -2 6 -27 12 -56 14 -55 3 -73 20 -51 47 17 21 3 73 -26 92 -33 21
-20 31 46 35 62 3 78 25 40 56 -16 13 -24 35 -30 87 -5 39 -9 78 -10 88 0 26
-20 20 -20 -6 0 -13 -9 -32 -19 -41 -18 -17 -19 -16 -26 13 -6 28 -50 71 -73
71 -5 0 -15 -7 -22 -15z"/>
<path d="M7374 8325 c-8 -21 11 -42 51 -55 22 -7 37 -20 44 -40 6 -17 16 -45
23 -62 16 -44 84 -108 113 -108 40 0 50 24 24 59 -19 26 -21 36 -13 73 8 39
12 43 44 48 27 4 35 10 35 25 0 17 -8 20 -57 23 -32 2 -66 -1 -76 -7 -15 -8
-26 -3 -57 25 -31 28 -47 34 -82 34 -30 0 -45 -5 -49 -15z"/>
<path d="M7096 7145 c-9 -25 -7 -75 3 -75 17 0 100 -89 106 -113 4 -14 25 -36
47 -51 65 -42 123 -29 79 18 -12 12 -21 33 -21 47 0 14 -15 40 -39 64 -106
110 -161 145 -175 110z"/>
<path d="M12032 2928 c-19 -19 -14 -44 20 -95 45 -69 43 -68 85 -43 50 30 63
47 63 86 0 42 -19 55 -72 52 -23 -1 -52 1 -63 5 -12 4 -26 2 -33 -5z"/>
<path d="M12033 2171 c-19 -18 -43 -76 -43 -104 0 -5 9 -22 20 -38 l21 -28
-36 -15 c-19 -8 -38 -23 -42 -33 -4 -10 -16 -26 -28 -35 -15 -13 -18 -21 -10
-34 15 -24 28 -23 40 4 6 14 24 26 46 32 20 6 50 23 67 40 27 25 40 30 83 30
29 0 69 -5 91 -12 33 -10 41 -9 56 5 34 34 -17 64 -77 46 -9 -2 -21 8 -29 25
-8 15 -27 36 -43 44 -21 13 -29 26 -31 52 -3 31 -7 35 -33 38 -20 2 -38 -4
-52 -17z"/>
<path d="M12440 1881 l-45 -28 3 -56 c3 -58 -12 -137 -27 -137 -4 0 -16 -18
-26 -39 -10 -22 -24 -42 -32 -46 -23 -8 2 -33 42 -41 18 -3 42 -14 52 -24 59
-54 121 -55 181 -1 46 43 52 65 22 81 -24 13 -27 67 -5 96 20 26 19 40 -9 109
-18 44 -35 67 -63 87 -21 15 -40 27 -43 27 -3 0 -25 -13 -50 -28z"/>
<path d="M11695 1775 c-5 -2 -31 -6 -57 -10 -42 -5 -51 -11 -78 -51 -17 -25
-28 -49 -25 -53 6 -10 51 -3 90 14 17 7 49 18 73 25 44 11 51 25 32 61 -11 19
-15 21 -35 14z"/>
<path d="M10373 622 c-35 -37 -63 -76 -63 -87 0 -28 19 -45 50 -45 33 0 86 64
96 114 3 21 16 46 27 57 l21 19 -21 0 c-12 0 -27 2 -35 5 -7 2 -41 -26 -75
-63z"/>
<path d="M10090 550 c0 -29 -18 -60 -35 -60 -8 0 -27 -12 -43 -27 -16 -16 -44
-36 -63 -46 l-34 -19 28 -24 c16 -13 37 -24 47 -24 27 0 130 28 144 39 6 5 39
19 74 31 34 13 62 26 62 30 0 10 -56 30 -81 30 -38 0 -68 22 -71 53 -3 35 -28
50 -28 17z"/>
<path d="M24475 4675 c-28 -27 -30 -46 -11 -125 8 -36 14 -48 19 -37 5 13 19
17 61 17 63 0 78 14 69 65 -6 36 -69 105 -95 105 -11 0 -30 -11 -43 -25z"/>
<path d="M25243 4650 c-29 -12 -31 -58 -5 -90 15 -19 29 -23 81 -24 67 -1 65
-2 95 61 14 31 13 34 -7 48 -24 17 -127 20 -164 5z"/>
<path d="M26202 4484 c-30 -21 -28 -34 11 -72 22 -22 43 -32 63 -32 35 0 54
-16 54 -44 0 -12 13 -57 29 -101 22 -64 32 -81 52 -87 13 -4 47 -14 76 -23 59
-17 119 -20 128 -5 3 6 27 10 53 10 66 0 76 9 69 61 -4 29 -13 49 -27 59 -12
8 -32 25 -45 38 -39 39 -66 22 -41 -26 14 -28 14 -30 -13 -56 l-28 -27 -15 23
c-9 13 -25 34 -37 47 -31 35 -23 53 29 66 96 23 33 68 -98 70 l-83 1 -53 57
c-57 61 -83 70 -124 41z"/>
<path d="M23233 4256 c-30 -14 -32 -18 -27 -48 4 -18 13 -39 20 -47 18 -20
129 -28 149 -11 22 18 19 73 -5 95 -26 23 -97 29 -137 11z"/>
<path d="M25240 3932 c0 -5 -17 -28 -37 -52 -37 -43 -38 -45 -38 -127 l0 -83
-35 -6 c-19 -3 -53 -10 -76 -15 -25 -7 -88 -8 -160 -4 -168 9 -307 9 -394 0
-57 -5 -91 -3 -139 9 -34 9 -71 16 -81 16 -9 0 -23 6 -29 14 -6 8 -23 16 -37
19 -19 3 -29 -2 -44 -24 -18 -24 -25 -27 -58 -22 -20 3 -57 14 -81 24 -49 21
-82 24 -97 9 -8 -8 -21 -5 -43 7 l-32 18 -22 -27 c-30 -37 -109 -51 -248 -46
-96 4 -111 7 -162 36 -31 17 -62 29 -69 26 -7 -3 -29 -28 -49 -55 -28 -39 -38
-64 -43 -110 -4 -32 -14 -76 -23 -96 -21 -51 -32 -293 -27 -619 l3 -261 -24
-23 c-27 -25 -30 -37 -15 -60 6 -10 34 -17 94 -20 63 -5 90 -11 105 -24 23
-21 70 -18 121 7 16 8 31 12 34 9 14 -13 4 -56 -24 -106 -33 -59 -33 -91 0
-121 16 -15 21 -15 47 -2 15 8 42 18 60 21 44 10 52 23 55 96 l3 64 77 11 c47
6 84 17 96 28 18 17 44 18 325 15 228 -2 309 -6 319 -15 16 -17 50 -16 74 2
16 12 79 14 385 15 316 0 374 -2 419 -17 48 -15 53 -15 80 0 20 12 52 17 112
18 45 0 117 4 158 10 92 11 85 11 146 3 40 -5 59 -2 92 15 23 12 63 24 88 28
40 5 56 15 114 72 l67 66 6 78 c4 46 15 93 27 117 18 35 20 58 20 237 0 179
-2 201 -19 227 -11 17 -23 57 -26 92 -7 58 -10 65 -55 105 -91 84 -95 86 -167
93 -37 3 -88 13 -113 20 -25 8 -74 19 -110 24 -37 5 -91 21 -121 36 -31 14
-61 26 -68 26 -6 0 -21 11 -33 25 -17 19 -31 25 -65 25 -24 0 -43 4 -43 9 0
21 -34 41 -68 41 -20 0 -47 8 -60 18 -20 15 -21 20 -10 49 9 25 9 35 -1 47
-14 16 -81 23 -81 8z m149 -220 c27 15 33 15 92 -1 68 -19 79 -30 53 -52 -24
-20 -284 -20 -308 0 -15 13 -15 15 1 34 10 11 31 25 47 32 26 11 33 10 59 -8
27 -21 30 -21 56 -5z"/>
<path d="M23568 3913 c-9 -10 -19 -29 -23 -43 -4 -13 -17 -37 -28 -52 -17 -22
-18 -30 -7 -43 18 -22 38 -18 100 19 48 28 55 37 58 68 4 43 -18 68 -57 68
-15 0 -35 -8 -43 -17z"/>
<path d="M26718 3864 c-10 -21 -9 -31 3 -53 13 -22 14 -34 5 -62 -10 -30 -15
-34 -51 -37 -54 -5 -77 -27 -73 -70 4 -50 31 -64 58 -30 11 15 35 32 54 38 18
6 42 20 51 30 10 11 24 20 31 20 8 0 21 12 31 28 9 15 27 38 39 52 55 63 34
94 -69 103 -66 6 -68 6 -79 -19z"/>
<path d="M22179 3474 c-24 -64 -35 -77 -76 -93 -64 -25 -69 -33 -47 -78 16
-31 25 -39 53 -41 22 -2 40 3 55 16 11 11 35 26 51 33 27 13 30 19 28 54 -2
63 -14 102 -34 121 -17 16 -19 15 -30 -12z"/>
<path d="M22295 3217 c-20 -29 -19 -53 3 -69 11 -7 25 -24 32 -38 7 -14 19
-29 26 -33 32 -19 13 -30 -43 -25 -68 6 -80 3 -94 -24 -8 -15 -7 -24 7 -39 14
-15 31 -19 84 -19 54 0 70 -4 85 -20 10 -11 33 -22 52 -26 23 -4 38 -15 49
-35 16 -32 44 -38 69 -13 34 34 -8 114 -61 114 -32 0 -37 13 -18 47 16 27 16
30 -10 68 -15 22 -36 49 -47 60 -10 11 -27 30 -37 41 -9 12 -31 24 -49 28 -26
4 -35 1 -48 -17z"/>
<path d="M23132 2320 c-41 -42 -66 -60 -84 -60 -35 0 -53 -23 -38 -49 21 -41
125 -21 178 33 37 38 52 96 32 121 -7 8 -16 15 -20 15 -5 0 -35 -27 -68 -60z"/>
<path d="M23294 2269 c-3 -6 -23 -21 -44 -34 -46 -29 -59 -60 -36 -84 23 -22
179 -18 215 6 l24 16 -42 35 c-53 44 -109 73 -117 61z"/>
<path d="M22370 1881 c-19 -4 -45 -13 -56 -19 -27 -14 -38 -71 -18 -91 12 -13
17 -12 42 6 l28 21 27 -24 c23 -19 39 -24 85 -24 56 0 65 3 133 47 57 37 63
44 47 58 -12 12 -45 19 -74 16 -6 -1 -16 -12 -22 -26 -16 -35 -56 -33 -90 4
-32 34 -54 41 -102 32z"/>
<path d="M22990 1696 c-14 -9 -36 -20 -50 -26 -60 -28 -73 -36 -80 -50 -4 -8
-12 -26 -19 -39 l-13 -24 59 8 c32 4 79 7 104 6 51 -1 59 5 90 66 15 30 17 40
6 50 -20 21 -70 25 -97 9z"/>
<path d="M3460 3650 c-47 -5 -498 -8 -1003 -9 l-917 0 -35 -27 -35 -26 0 -120
0 -120 -31 -36 c-27 -30 -31 -41 -27 -76 3 -23 17 -59 32 -80 l26 -39 0 -223
0 -224 -52 -27 c-34 -17 -47 -28 -36 -30 20 -5 30 -41 22 -82 l-7 -31 -53 30
c-78 44 -154 37 -154 -13 0 -28 72 -91 121 -105 52 -15 143 -56 151 -67 4 -5
8 -249 8 -542 l0 -532 23 -22 c59 -56 34 -54 525 -57 440 -3 455 -2 496 18 57
27 148 27 211 -1 55 -24 124 -22 154 5 24 21 123 22 141 1 16 -19 51 -19 76 0
26 20 63 19 87 -3 17 -15 46 -17 224 -20 116 -2 217 1 233 7 19 6 42 6 68 -1
28 -7 60 -6 108 2 38 6 78 11 89 9 51 -5 96 0 117 15 17 12 47 16 123 16 55 1
157 5 226 9 108 7 130 11 157 31 27 20 39 22 91 17 l59 -5 66 65 c36 35 66 68
66 72 0 5 14 25 30 46 17 21 30 48 30 61 0 13 12 34 26 48 25 22 27 32 34 138
5 80 12 123 25 148 17 32 19 68 23 411 4 373 -6 618 -29 677 -6 15 -14 84 -18
155 -7 108 -11 131 -28 150 -12 12 -26 39 -31 60 -11 39 -18 48 -93 122 -95
94 -109 105 -135 105 -14 0 -39 11 -55 24 -22 19 -45 26 -106 31 -43 4 -96 11
-118 16 -107 25 -336 34 -640 27 -38 -1 -95 1 -125 4 -30 3 -93 2 -140 -2z"/>
<path d="M1158 3219 c-10 -5 -22 -29 -29 -52 -6 -23 -22 -54 -34 -69 -36 -42
-19 -80 50 -114 30 -14 59 -32 65 -39 7 -8 27 -19 47 -26 31 -10 38 -9 54 7
16 17 17 25 8 59 -6 22 -17 47 -25 55 -7 9 -20 36 -29 60 -9 24 -21 51 -29 60
-7 8 -16 23 -19 32 -9 24 -39 38 -59 27z"/>
<path d="M1157 2809 c-13 -7 -17 -21 -16 -47 1 -20 -1 -50 -5 -67 -4 -21 0
-39 14 -63 19 -31 21 -32 39 -15 10 10 31 28 45 40 23 19 26 29 26 80 0 33 -5
64 -12 71 -15 15 -66 15 -91 1z"/>
<path d="M597 1524 c-4 -4 -7 -23 -7 -43 1 -27 10 -47 40 -80 37 -42 40 -44
66 -33 25 12 26 16 20 60 -8 63 -34 96 -77 100 -19 2 -38 0 -42 -4z"/>
<path d="M5593 849 c-17 -17 -16 -80 0 -103 11 -15 17 -16 35 -7 29 15 52 14
74 -6 17 -15 21 -15 53 0 69 33 63 80 -9 75 -25 -1 -42 4 -59 20 -29 27 -78
38 -94 21z"/>
<path d="M2738 738 c-20 -11 -42 -32 -49 -45 -11 -20 -10 -26 5 -41 14 -14 34
-17 107 -15 126 2 150 25 82 80 -52 41 -98 48 -145 21z"/>
<path d="M4913 418 c-4 -7 -20 -40 -35 -73 -29 -65 -25 -95 15 -95 53 0 101
65 90 122 -7 41 -20 58 -44 58 -10 0 -21 -6 -26 -12z"/>
<path d="M14747 4582 c-16 -17 -15 -21 13 -59 l30 -40 121 -6 c100 -4 124 -8
142 -25 35 -31 44 -33 61 -16 18 18 6 54 -19 54 -8 0 -19 9 -24 19 -9 16 -25
20 -102 22 -88 4 -91 5 -117 37 -31 37 -78 44 -105 14z"/>
<path d="M15322 4501 c-51 -47 -57 -92 -19 -138 13 -15 27 -41 31 -58 10 -39
53 -109 93 -152 17 -18 37 -49 43 -68 10 -29 16 -35 39 -35 36 0 89 -39 69
-51 -7 -5 -34 -9 -60 -9 -36 0 -50 -5 -57 -19 -16 -29 42 -99 94 -112 22 -6
45 -16 50 -23 6 -7 25 -20 43 -30 17 -9 32 -21 32 -27 0 -23 70 -39 168 -39
94 0 101 1 147 32 48 32 48 32 64 11 9 -11 27 -26 40 -32 18 -10 20 -15 10
-27 -6 -8 -17 -14 -25 -14 -7 0 -19 -8 -26 -18 -29 -41 -106 -54 -191 -32 -37
9 -55 9 -80 0 -18 -7 -106 -16 -197 -20 -91 -5 -210 -13 -265 -19 -55 -6 -171
-13 -258 -17 -154 -6 -159 -7 -183 -33 -44 -47 -46 -71 -42 -526 5 -422 5
-432 30 -524 26 -97 36 -110 78 -111 14 0 59 -3 100 -6 41 -3 86 -5 100 -5
113 2 150 0 180 -11 50 -17 700 -22 910 -8 91 7 179 11 195 10 68 -5 159 -4
315 2 91 4 279 12 417 17 139 5 258 13 264 17 51 31 132 112 151 149 38 79 58
110 79 126 21 15 22 24 22 200 1 166 -1 190 -22 248 -12 35 -25 93 -28 130 -3
44 -13 77 -28 101 -12 19 -25 47 -29 61 -5 23 -25 42 -140 129 -37 29 -44 30
-136 30 -86 0 -99 2 -116 21 -46 52 -147 58 -183 10 -15 -19 -29 -20 -196 -23
-99 -2 -234 3 -300 10 -322 33 -307 29 -320 89 -5 27 -3 32 17 39 13 4 57 6
99 6 87 -2 122 14 103 45 -9 14 -29 19 -100 24 -85 6 -91 8 -126 42 -41 39
-45 57 -24 114 8 21 17 64 20 96 5 49 3 65 -14 92 -35 56 -64 59 -116 9 -31
-28 -39 -45 -44 -81 -3 -26 -9 -48 -15 -50 -5 -1 -23 8 -39 21 -26 20 -30 30
-33 86 -4 91 -18 107 -97 115 -57 6 -71 4 -108 -15 -66 -35 -97 -41 -168 -34
l-65 6 -22 49 c-29 62 -29 83 3 108 l25 20 -29 15 c-32 16 -42 34 -42 71 0 22
-23 55 -38 55 -4 0 -26 -17 -50 -39z"/>
<path d="M16802 4485 c-16 -35 -15 -87 2 -110 12 -16 18 -17 40 -7 20 9 33 8
61 -4 19 -8 35 -20 35 -27 0 -18 -37 -49 -82 -70 -25 -11 -40 -25 -44 -42 -4
-15 -18 -31 -33 -38 l-26 -11 29 -4 c16 -2 33 1 39 7 6 6 46 11 88 11 84 0
124 11 152 41 12 12 31 19 57 19 56 0 70 19 69 93 -2 100 -9 120 -52 140 -47
23 -81 16 -116 -24 -22 -25 -32 -29 -78 -29 -28 0 -55 -5 -58 -10 -11 -18 -34
8 -45 51 -13 45 -22 49 -38 14z"/>
<path d="M15572 4483 c-18 -16 -27 -49 -23 -90 2 -20 37 -33 70 -27 31 7 101
69 101 90 0 16 -62 44 -98 44 -16 0 -39 -8 -50 -17z"/>
<path d="M17157 4098 c-9 -7 -20 -31 -25 -52 -5 -29 -16 -44 -37 -56 -23 -13
-30 -24 -30 -46 l0 -29 75 3 c41 2 80 8 87 14 8 7 13 37 13 84 0 62 -3 75 -19
84 -26 13 -44 13 -64 -2z"/>
<path d="M16408 3979 c-41 -23 -7 -59 56 -59 19 0 42 -7 51 -17 25 -24 135
-38 154 -19 12 13 12 17 1 31 -11 13 -24 15 -52 11 -50 -8 -85 1 -91 25 -9 33
-82 50 -119 28z"/>
<path d="M18968 3148 c-11 -9 -17 -34 -20 -81 -4 -65 -6 -69 -54 -120 -83 -86
-114 -133 -114 -168 l0 -31 55 4 c43 4 59 10 71 27 18 25 38 18 28 -11 -11
-36 6 -146 27 -170 l19 -23 20 24 c17 20 20 39 22 150 4 264 -2 375 -20 394
-15 14 -21 15 -34 5z"/>
<path d="M17085 2129 c-4 -5 -22 -16 -41 -24 -37 -15 -37 -16 -34 -95 3 -81
16 -90 84 -57 30 15 57 27 61 27 3 0 14 -19 24 -43 10 -24 34 -56 52 -71 37
-31 99 -114 99 -133 0 -6 10 -19 22 -27 27 -19 189 -22 267 -5 72 15 105 -2
109 -56 2 -22 10 -47 18 -56 17 -19 67 -14 86 10 21 24 60 129 54 140 -9 14
-103 31 -164 30 -44 -1 -58 3 -80 23 -15 14 -40 28 -55 32 -30 7 -87 61 -87
83 0 19 15 24 72 23 29 0 64 -1 78 -1 14 0 61 1 105 3 66 2 80 6 83 20 4 23
-30 31 -88 20 -49 -9 -79 3 -113 45 -36 45 -156 37 -179 -12 -6 -13 -28 -36
-49 -51 -47 -32 -72 -21 -62 27 5 26 -1 36 -41 74 -43 42 -50 45 -99 45 -34 0
-63 7 -84 20 -19 11 -35 15 -38 9z"/>
<path d="M17194 1516 c-3 -8 1 -34 9 -58 13 -37 19 -43 45 -46 19 -2 37 -12
46 -28 14 -20 24 -24 66 -24 37 0 50 -4 50 -14 0 -19 14 -28 34 -20 24 9 19
23 -9 30 -15 4 -25 13 -25 25 0 21 -36 49 -62 49 -10 0 -28 11 -40 25 -33 38
-108 78 -114 61z"/>
<path d="M14247 869 c-28 -16 -23 -94 8 -123 13 -13 22 -26 18 -29 -3 -4 -55
-7 -115 -7 -110 0 -148 -9 -148 -35 0 -17 31 -35 61 -35 59 0 103 -25 175 -99
65 -67 74 -73 89 -61 27 22 15 120 -19 161 -14 17 -24 35 -20 40 10 16 43 10
54 -11 12 -22 40 -26 57 -9 15 15 -2 66 -31 95 -36 35 -76 86 -76 95 0 16 -35
28 -53 18z"/>
<path d="M13731 693 c-20 -16 -21 -21 -10 -53 17 -51 37 -70 76 -70 40 0 103
24 103 40 0 6 16 20 35 31 71 42 35 69 -93 69 -71 0 -94 -4 -111 -17z"/>
<path d="M14412 428 c-21 -21 -14 -57 13 -70 20 -9 25 -18 25 -48 0 -44 20
-73 46 -68 16 3 19 13 22 77 4 90 -12 121 -61 121 -18 0 -38 -5 -45 -12z"/>
<path d="M0 6021 c0 -338 4 -601 9 -601 20 0 32 32 38 99 l6 71 53 25 c29 14
64 25 77 25 14 0 30 7 37 15 17 21 -1 42 -50 56 -31 10 -44 9 -71 -5 -48 -24
-60 -6 -31 44 24 42 27 74 12 114 -9 24 -6 27 24 40 18 8 36 18 40 24 9 15
-15 30 -54 34 l-35 3 -3 96 c-3 93 -2 97 23 113 31 20 31 29 2 56 -21 20 -22
30 -24 173 -3 166 -11 210 -36 215 -16 3 -17 -40 -17 -597z"/>
<path d="M33552 4548 c-7 -7 -12 -38 -12 -70 0 -46 -3 -58 -16 -58 -24 0 -44
-62 -50 -158 -7 -86 -6 -90 17 -105 13 -10 43 -17 66 -17 l43 0 0 125 0 125
-24 0 c-14 0 -28 5 -31 10 -4 6 7 10 24 10 l31 0 0 75 c0 66 -2 75 -18 75 -10
0 -23 -5 -30 -12z"/>
<path d="M32165 4316 c-22 -33 -7 -59 42 -74 69 -21 101 -47 109 -89 8 -48 49
-112 93 -146 37 -29 68 -34 94 -14 15 11 15 16 -9 64 -25 50 -26 54 -11 90 8
21 24 43 37 49 42 22 47 34 21 55 -20 16 -33 18 -91 13 -81 -8 -117 -1 -125
25 -7 22 -72 51 -115 51 -20 0 -35 -8 -45 -24z"/>
<path d="M29239 4120 c-53 -52 -24 -94 73 -108 64 -8 76 31 32 98 -33 49 -63
52 -105 10z"/>
<path d="M33439 4024 c-7 -8 -26 -22 -42 -31 -32 -16 -76 -62 -77 -78 0 -5
-14 -22 -32 -37 -44 -36 -31 -62 33 -66 24 -2 48 -8 54 -13 14 -14 -12 -29
-50 -29 -39 0 -75 -25 -75 -53 0 -48 -11 -52 -149 -55 -128 -4 -130 -3 -151
21 -15 17 -37 27 -68 32 -26 4 -56 15 -67 25 -13 11 -45 20 -90 24 -38 4 -74
11 -79 17 -17 16 -24 10 -36 -25 -6 -19 -28 -47 -48 -63 l-37 -28 -496 0
c-471 0 -497 1 -532 19 -29 16 -40 18 -60 9 -35 -16 -133 15 -162 51 -17 21
-29 26 -67 26 -39 0 -52 -5 -80 -33 -18 -17 -38 -41 -43 -51 -11 -18 -12 -18
-45 0 -48 26 -215 37 -510 35 -91 -1 -179 -5 -195 -9 -17 -5 -82 -6 -145 -2
-133 7 -195 0 -213 -24 -12 -16 -16 -16 -57 -1 -25 9 -53 19 -62 22 -32 10
-82 -7 -122 -40 l-38 -33 1 -120 c2 -107 0 -122 -18 -143 -33 -37 -36 -84 -12
-150 12 -32 19 -65 16 -73 -3 -8 3 -35 14 -60 16 -38 29 -51 83 -80 l63 -35
172 -7 c94 -3 240 -13 325 -20 211 -20 1052 -29 1093 -12 24 10 36 10 62 -1
21 -8 76 -13 155 -13 80 0 132 -5 148 -13 24 -12 25 -16 22 -94 l-3 -80 72
-69 c39 -38 77 -83 84 -99 19 -44 46 -64 106 -80 80 -21 107 14 52 66 -38 34
-63 67 -63 81 0 6 -45 55 -100 109 -104 103 -118 130 -84 163 14 14 94 16 738
16 548 0 725 -3 734 -12 9 -9 12 -122 12 -449 0 -240 -3 -451 -6 -468 -9 -43
-35 -55 -129 -58 -229 -7 -1582 0 -1702 9 -76 5 -149 9 -163 9 -242 -13 -340
-12 -414 4 -67 15 -85 15 -117 5 -32 -11 -46 -11 -80 0 -34 12 -50 12 -97 1
-96 -22 -129 -24 -179 -7 -62 21 -286 22 -323 1 -31 -18 -177 -20 -217 -4 -15
7 -55 11 -88 10 -34 -1 -73 3 -88 8 -23 9 -29 7 -41 -12 -20 -33 -29 -180 -28
-471 1 -204 4 -263 15 -280 24 -35 181 -59 435 -64 l214 -4 81 -41 c45 -22 86
-45 92 -49 5 -5 24 -18 40 -28 17 -11 38 -25 48 -32 15 -11 20 -10 30 3 7 9
23 21 35 28 13 7 30 28 38 46 7 18 25 43 40 54 l27 21 1361 -1 c748 -1 1367
-4 1374 -6 7 -3 19 -21 27 -39 8 -19 21 -34 29 -34 14 0 16 149 16 1473 l0
1473 -47 17 c-60 21 -97 22 -114 1z"/>
<path d="M29562 2287 c-6 -7 -16 -33 -22 -59 -10 -39 -16 -47 -41 -52 -24 -5
-29 -10 -29 -36 0 -40 36 -65 74 -50 44 16 116 70 116 85 0 8 -9 19 -20 25
-24 13 -26 52 -5 70 8 7 15 16 15 21 0 14 -76 11 -88 -4z"/>
</g>
</svg>
